<?xml version="1.0" encoding="UTF-8"?>
<svg id="Layer_1" xmlns="http://www.w3.org/2000/svg" viewBox="0 0 670 670">
  <defs>
    <style>
      .cls-1 {
        fill: #fff;
      }
    </style>
  </defs>
  <path class="cls-1" d="M335,0C149.98,0,0,149.98,0,335s149.98,335,335,335,335-149.98,335-335S520.02,0,335,0ZM334.5,647c-172.04,0-311.5-139.46-311.5-311.5S162.46,24,334.5,24s311.5,139.46,311.5,311.5-139.46,311.5-311.5,311.5Z"/>
  <path class="cls-1" d="M610,479c13.44,64.82-129.62,178.29-275.5,179-139.35.68-280-101.55-269.5-166,10.87-66.76,183.41-89.79,269.5-91.92,88.77-2.2,261.92,13.46,275.5,78.92Z"/>
  <circle class="cls-1" cx="335" cy="293" r="157"/>
</svg>